<svg width="23" height="23" viewBox="0 0 23 23" fill="none" xmlns="http://www.w3.org/2000/svg">
<g id="Social Icons">
<path id="BG" opacity="0.1" fill-rule="evenodd" clip-rule="evenodd" d="M0.262695 11.7744C0.262695 5.62358 5.24895 0.637329 11.3998 0.637329C17.5507 0.637329 22.5369 5.62358 22.5369 11.7744C22.5369 17.9253 17.5507 22.9116 11.3998 22.9116C5.24895 22.9116 0.262695 17.9253 0.262695 11.7744Z" fill="white"/>
<path id="Path" fill-rule="evenodd" clip-rule="evenodd" d="M17.3395 11.7662C17.3395 12.1678 17.2987 12.569 17.2183 12.96C17.14 13.3417 17.024 13.7165 16.872 14.0748C16.7235 14.4267 16.5393 14.7658 16.3241 15.0821C16.1121 15.3963 15.8679 15.6912 15.5996 15.9599C15.3307 16.2275 15.0349 16.4711 14.7208 16.684C14.4035 16.8977 14.0638 17.0816 13.7117 17.2308C13.3529 17.382 12.9773 17.4978 12.5959 17.576C12.2044 17.6566 11.8018 17.6977 11.3995 17.6977C10.9969 17.6977 10.5943 17.6566 10.2034 17.576C9.82137 17.4978 9.44576 17.382 9.08726 17.2308C8.73516 17.0816 8.39521 16.8977 8.07791 16.684C7.76379 16.4711 7.46795 16.2275 7.19966 15.9599C6.93108 15.6912 6.68685 15.3963 6.47455 15.0821C6.26049 14.7658 6.07601 14.4267 5.92694 14.0748C5.77494 13.7165 5.65865 13.3417 5.58004 12.96C5.50058 12.569 5.45996 12.1678 5.45996 11.7662C5.45996 11.3642 5.50055 10.9622 5.58007 10.572C5.65867 10.1903 5.77496 9.81492 5.92696 9.45724C6.07603 9.10506 6.26052 8.76563 6.47457 8.44935C6.68688 8.13482 6.93111 7.84054 7.19968 7.57148C7.46797 7.30385 7.76382 7.06088 8.07793 6.8483C8.39523 6.63367 8.73518 6.44978 9.08729 6.30032C9.44578 6.14882 9.82137 6.03269 10.2034 5.95508C10.5944 5.87515 10.9969 5.83459 11.3995 5.83459C11.8018 5.83459 12.2044 5.87515 12.5959 5.95508C12.9773 6.03271 13.3529 6.14884 13.7117 6.30032C14.0638 6.44976 14.4035 6.63367 14.7208 6.8483C15.0349 7.06088 15.3308 7.30385 15.5996 7.57148C15.8679 7.84054 16.1121 8.13482 16.3241 8.44935C16.5393 8.76563 16.7235 9.10509 16.872 9.45724C17.024 9.81492 17.14 10.1903 17.2183 10.572C17.2987 10.9622 17.3395 11.3642 17.3395 11.7662ZM9.23515 7.18454C7.82059 7.85156 6.76484 9.15313 6.43563 10.7218C6.56936 10.7229 8.6832 10.7496 11.1187 10.1034C10.2407 8.54577 9.30274 7.27464 9.23515 7.18454ZM11.539 10.8834C8.92713 11.6642 6.42084 11.608 6.33094 11.6045C6.32947 11.659 6.32687 11.7117 6.32687 11.7661C6.32687 13.0674 6.81849 14.2537 7.62656 15.1507C7.62481 15.1481 9.01298 12.6889 11.7504 11.805C11.8165 11.783 11.8838 11.7632 11.9505 11.7441C11.8232 11.4563 11.6843 11.1678 11.539 10.8834ZM14.7495 7.96451C13.8564 7.17816 12.6838 6.70118 11.3995 6.70118C10.9873 6.70118 10.5873 6.751 10.2042 6.84309C10.2802 6.94505 11.233 8.20723 12.1005 9.79783C14.0145 9.08131 14.737 7.98304 14.7495 7.96451ZM12.2963 12.5835C12.285 12.5872 12.2737 12.5904 12.2627 12.5945C9.26975 13.6363 8.29238 15.736 8.2818 15.7589C9.14296 16.4277 10.2231 16.8311 11.3995 16.8311C12.102 16.8311 12.7711 16.6883 13.3799 16.4297C13.3048 15.9872 13.0101 14.4359 12.2963 12.5835ZM14.2341 15.9669C15.3731 15.1994 16.182 13.9806 16.4076 12.569C16.3032 12.5354 14.884 12.0867 13.2467 12.3489C13.9121 14.1747 14.1824 15.6616 14.2341 15.9669ZM12.4909 10.5526C12.6087 10.7942 12.7227 11.04 12.828 11.2871C12.8654 11.3757 12.9019 11.4626 12.9376 11.5495C14.6802 11.3305 16.3969 11.6989 16.4703 11.714C16.4587 10.5132 16.0286 9.41118 15.3168 8.5484C15.3073 8.56198 14.4937 9.73584 12.4909 10.5526Z" fill="white"/>
</g>
</svg>
