<svg width="23" height="23" viewBox="0 0 23 23" fill="none" xmlns="http://www.w3.org/2000/svg">
<g id="Social Icons">
<path id="BG" opacity="0.1" fill-rule="evenodd" clip-rule="evenodd" d="M0.0854492 11.7744C0.0854492 5.62358 5.0717 0.637329 11.2226 0.637329C17.3734 0.637329 22.3597 5.62358 22.3597 11.7744C22.3597 17.9253 17.3734 22.9116 11.2226 22.9116C5.0717 22.9116 0.0854492 17.9253 0.0854492 11.7744Z" fill="white"/>
<path id="Path" fill-rule="evenodd" clip-rule="evenodd" d="M15.864 7.94583C16.3751 8.0861 16.7777 8.49939 16.9143 9.02422C17.1625 9.97544 17.1625 11.9601 17.1625 11.9601C17.1625 11.9601 17.1625 13.9448 16.9143 14.8961C16.7777 15.4209 16.3751 15.8342 15.864 15.9745C14.9376 16.2294 11.2228 16.2294 11.2228 16.2294C11.2228 16.2294 7.50788 16.2294 6.58148 15.9745C6.07032 15.8342 5.66776 15.4209 5.53115 14.8961C5.28296 13.9448 5.28296 11.9601 5.28296 11.9601C5.28296 11.9601 5.28296 9.97544 5.53115 9.02422C5.66776 8.49939 6.07032 8.0861 6.58148 7.94583C7.50788 7.69092 11.2228 7.69092 11.2228 7.69092C11.2228 7.69092 14.9376 7.69092 15.864 7.94583ZM10.1091 10.2895V14.0019L13.0789 12.1458L10.1091 10.2895Z" fill="white"/>
</g>
</svg>
