<svg width="37" height="34" viewBox="0 0 37 34" fill="none" xmlns="http://www.w3.org/2000/svg">
<g clip-path="url(#clip0_211_2076)">
<path d="M8.81726 10.0039C7.40373 10.0039 6.04811 10.5654 5.0486 11.5649L1.78662 14.8269C0.787105 15.8264 0.225586 17.1821 0.225586 18.5956C0.225586 21.5391 2.61178 23.9253 5.5553 23.9253C6.96883 23.9253 8.32445 23.3638 9.32396 22.3642L11.5803 20.1079C11.5803 20.1079 11.5803 20.108 11.5803 20.1079L18.1545 13.5337C18.6318 13.0564 19.2793 12.7882 19.9544 12.7882C21.0846 12.7882 22.0428 13.5248 22.375 14.5442L24.4498 12.4694C23.5033 10.9869 21.8436 10.0039 19.9544 10.0039C18.5408 10.0039 17.1852 10.5654 16.1857 11.5649L7.35519 20.3955C6.87783 20.8728 6.23039 21.141 5.5553 21.141C4.14949 21.141 3.00986 20.0014 3.00986 18.5956C3.00986 17.9205 3.27804 17.2731 3.7554 16.7957L7.01737 13.5337C7.49473 13.0564 8.14217 12.7882 8.81726 12.7882C9.94754 12.7882 10.9057 13.5248 11.2379 14.5442L13.3128 12.4694C12.3662 10.9869 10.7066 10.0039 8.81726 10.0039Z" fill="#394149"/>
<path d="M18.4924 20.3955C18.0151 20.8728 17.3676 21.141 16.6925 21.141C15.5624 21.141 14.6043 20.4046 14.272 19.3854L12.1973 21.4601C13.1438 22.9424 14.8034 23.9253 16.6925 23.9253C18.1061 23.9253 19.4617 23.3638 20.4612 22.3642L29.2917 13.5337C29.7691 13.0564 30.4165 12.7882 31.0916 12.7882C32.4974 12.7882 33.637 13.9278 33.637 15.3336C33.637 16.0087 33.3689 16.6561 32.8915 17.1335L29.6295 20.3955C29.1522 20.8728 28.5047 21.141 27.8296 21.141C26.6995 21.141 25.7413 20.4044 25.409 19.3852L23.3343 21.46C24.2808 22.9424 25.9404 23.9253 27.8296 23.9253C29.2432 23.9253 30.5988 23.3638 31.5983 22.3642L34.8603 19.1023C35.8598 18.1028 36.4213 16.7471 36.4213 15.3336C36.4213 12.3901 34.0351 10.0039 31.0916 10.0039C29.6781 10.0039 28.3225 10.5654 27.3229 11.5649L18.4924 20.3955Z" fill="#394149"/>
</g>
<defs>
<clipPath id="clip0_211_2076">
<rect width="36.1956" height="13.9214" fill="white" transform="translate(0.225586 10.0039)"/>
</clipPath>
</defs>
</svg>
