<svg width="34" height="34" viewBox="0 0 34 34" fill="none" xmlns="http://www.w3.org/2000/svg">
<g clip-path="url(#clip0_211_2072)">
<path d="M30.0803 8.50332C30.0803 8.82769 30.3465 9.09063 30.6749 9.09063H31.2694C31.5978 9.09063 31.864 8.82769 31.864 8.50332C31.864 8.17896 31.5978 7.91602 31.2694 7.91602H30.6749C30.3465 7.91602 30.0803 8.17896 30.0803 8.50332Z" fill="#212326"/>
<path d="M12.8381 26.7099H15.7264L14.8856 25.8793C14.6626 25.659 14.3601 25.5353 14.0448 25.5353H12.8381C8.24101 25.5353 4.51431 21.854 4.51431 17.313C4.51431 12.7719 8.24101 9.09064 12.8381 9.09063H22.3511C26.9482 9.09063 30.6749 12.7719 30.6749 17.313C30.6749 21.854 26.9482 25.5353 22.3511 25.5353H18.7925C18.3194 25.5353 17.8657 25.3496 17.5312 25.0192L16.5462 24.0461C15.9886 23.4954 15.2325 23.186 14.444 23.186H12.8381C9.55446 23.186 6.89255 20.5566 6.89255 17.313C6.89255 14.0693 9.55446 11.4399 12.8381 11.4399H22.3511C25.6348 11.4399 28.2967 14.0693 28.2967 17.313C28.2967 20.5566 25.6348 23.186 22.3511 23.186H20.0661C19.5931 23.186 19.1394 23.0004 18.8049 22.67L17.8197 21.6969C17.2622 21.1462 16.5061 20.8368 15.7177 20.8368H12.8381C10.868 20.8368 9.27079 19.2591 9.27079 17.313C9.27079 15.3668 10.868 13.7891 12.8381 13.7891H22.3511C24.3213 13.7891 25.9185 15.3668 25.9185 17.313C25.9185 19.2354 24.36 20.7983 22.423 20.8361L22.4226 20.8368H21.5525C21.0795 20.8368 20.6258 20.6512 20.2913 20.3208L19.3061 19.3477C18.8487 18.8958 18.2575 18.6064 17.6245 18.5171L17.5946 18.4876H12.8381C12.1814 18.4876 11.649 17.9617 11.649 17.313C11.649 16.6642 12.1814 16.1383 12.8381 16.1383H22.3511C23.0078 16.1383 23.5402 16.6642 23.5402 17.313C23.5402 17.9617 23.0078 18.4876 22.3511 18.4876H19.9729L20.8137 19.3182C21.0367 19.5384 21.3392 19.6622 21.6545 19.6622H22.3511C23.6645 19.6622 24.7293 18.6104 24.7293 17.313C24.7293 16.0155 23.6645 14.9637 22.3511 14.9637H12.8381C11.5247 14.9637 10.4599 16.0155 10.4599 17.313C10.4599 18.6104 11.5247 19.6622 12.8381 19.6622H17.2041C17.6771 19.6622 18.1308 19.8478 18.4653 20.1782L19.4505 21.1513C20.008 21.702 20.7641 22.0114 21.5525 22.0114H22.6484V22.0024C25.1368 21.8508 27.1076 19.8092 27.1076 17.313C27.1076 14.7181 24.978 12.6145 22.3511 12.6145H12.8381C10.2112 12.6145 8.08167 14.7181 8.08167 17.313C8.08167 19.9079 10.2112 22.0114 12.8381 22.0114H15.7177C16.1907 22.0114 16.6444 22.1971 16.9789 22.5275L17.9641 23.5006C18.5216 24.0513 19.2777 24.3607 20.0661 24.3607H22.3511C26.2915 24.3607 29.4858 21.2053 29.4858 17.313C29.4858 13.4206 26.2915 10.2652 22.3511 10.2652H12.8381C8.89774 10.2652 5.70343 13.4206 5.70343 17.313C5.70343 21.2053 8.89774 24.3607 12.8381 24.3607H14.444C14.9171 24.3607 15.3708 24.5463 15.7053 24.8767L16.6904 25.8498C17.2479 26.4005 18.0041 26.7099 18.7925 26.7099H22.3511C27.605 26.7099 31.864 22.5027 31.864 17.313C31.864 12.1232 27.605 7.91602 22.3511 7.91602L12.8381 7.91602C7.58429 7.91602 3.32519 12.1232 3.3252 17.313C3.3252 22.5027 7.58429 26.7099 12.8381 26.7099Z" fill="#212326"/>
</g>
<defs>
<clipPath id="clip0_211_2072">
<rect width="28.5388" height="18.7939" fill="white" transform="translate(3.3252 7.91602)"/>
</clipPath>
</defs>
</svg>
