<svg width="47" height="36" viewBox="0 0 47 36" fill="none" xmlns="http://www.w3.org/2000/svg">
<g filter="url(#filter0_d_211_2052)">
<g clip-path="url(#clip0_211_2052)">
<path d="M42.5802 13.9507C42.5841 13.9217 42.5841 13.8924 42.5802 13.8634C42.5839 13.8397 42.5839 13.8156 42.5802 13.7919L42.2965 11.7506C42.2556 11.5063 42.1462 11.2781 41.9806 11.0913L41.9319 11.0357L41.8429 10.9483L36.9331 6.80213L37.0708 6.93717C36.9581 6.805 36.8167 6.69928 36.6569 6.62779C36.497 6.55631 36.3228 6.52089 36.1472 6.52413H34.6564C34.414 6.51942 34.1771 6.59498 33.984 6.73859C33.7811 6.59585 33.5369 6.52068 33.2872 6.52413H31.7964C31.6009 6.52102 31.408 6.5686 31.2373 6.66205C31.0666 6.7555 30.9241 6.89151 30.8242 7.0563C30.6702 7.29168 30.6124 7.57528 30.6621 7.8506L30.8485 9.13734C30.725 9.06873 30.5853 9.03313 30.4434 9.03409H23.2246C22.9655 9.03569 22.7125 9.11011 22.4954 9.24854C22.2854 9.37739 22.1168 9.5619 22.0093 9.78071L21.4502 9.31209C21.2302 9.1125 20.9398 9.00432 20.64 9.01026H9.31348C9.05356 9.0149 8.79941 9.08609 8.57622 9.21677C8.27087 9.39199 8.0471 9.67688 7.95235 10.0111L4.35508 21.8063C4.28787 22.0006 4.28126 22.2102 4.33609 22.4083C4.39093 22.6063 4.50473 22.7839 4.66296 22.9183C4.70419 22.9525 4.74748 22.9844 4.7926 23.0136C4.7926 23.0136 4.71967 22.9659 4.67916 22.9262L9.58897 27.0804C9.79666 27.2678 10.0682 27.3726 10.3505 27.3742H21.7662C22.0269 27.3676 22.2812 27.2936 22.5035 27.1598C22.6292 27.0924 22.7416 27.0037 22.8357 26.8976L22.8762 26.842L22.941 26.7626L22.9896 26.6752L23.5243 27.128C23.729 27.308 23.9947 27.4071 24.2697 27.406H35.7097C35.9701 27.3975 36.2239 27.3237 36.4469 27.1916C36.5698 27.1201 36.6816 27.0318 36.7792 26.9294L36.8196 26.8738L36.8844 26.7944C36.9189 26.7442 36.9488 26.691 36.9735 26.6355C37 26.5874 37.0217 26.5368 37.0384 26.4846L40.3197 15.7141V15.6188C40.3237 15.5818 40.3237 15.5445 40.3197 15.5076V15.4361C40.3236 15.4124 40.3236 15.3883 40.3197 15.3646C40.3233 15.3143 40.3233 15.2639 40.3197 15.2136H41.3729C41.4646 15.2219 41.5568 15.2219 41.6484 15.2136H41.7213C41.7806 15.1963 41.8377 15.1723 41.8915 15.1422H41.9725L42.1183 15.031L42.1831 14.9833L42.2965 14.8403V14.7927L42.3776 14.6577C42.3731 14.6314 42.3731 14.6045 42.3776 14.5782C42.3733 14.5654 42.3733 14.5514 42.3776 14.5385C42.3948 14.492 42.4084 14.4441 42.4181 14.3955C42.4143 14.3799 42.4143 14.3635 42.4181 14.3479C42.4142 14.3242 42.4142 14.3 42.4181 14.2764C42.4181 14.2764 42.5802 13.9666 42.5802 13.9507Z" fill="black"/>
<path d="M20.9722 9.91603C21.0152 9.95416 21.0453 10.0043 21.0583 10.0597C21.0714 10.1151 21.0668 10.173 21.0452 10.2258L17.456 22.0131C17.4108 22.1417 17.3183 22.2493 17.1967 22.3149C17.0978 22.3798 16.9833 22.4181 16.8645 22.4261H5.45699C5.35957 22.4215 5.26727 22.3819 5.19772 22.3149C5.15635 22.2774 5.12731 22.2286 5.11432 22.1749C5.10133 22.1211 5.10499 22.0648 5.12481 22.0131L8.72208 10.2258C8.76352 10.0955 8.85308 9.98502 8.97323 9.91603C9.07382 9.85579 9.1878 9.82036 9.30542 9.81277H20.7129C20.8096 9.81368 20.9023 9.8506 20.9722 9.91603ZM15.0173 19.6381L17.1643 12.6007H11.1527L9.01374 19.6381H15.0173ZM31.8612 10.0352C31.9002 10.0795 31.9488 10.1147 32.0035 10.1381C32.0583 10.1614 32.1176 10.1724 32.1772 10.1702H33.6599C33.7164 10.1707 33.772 10.1572 33.8216 10.1308C33.8713 10.1044 33.9132 10.066 33.9435 10.0193C33.9698 9.9828 33.9884 9.9415 33.9981 9.89783C34.0079 9.85418 34.0085 9.80904 34.0001 9.76511L33.7085 7.66819C33.6807 7.57114 33.6309 7.48152 33.5627 7.40607C33.5237 7.36173 33.4751 7.32656 33.4204 7.30318C33.3657 7.27981 33.3063 7.26882 33.2467 7.27104H31.764C31.7076 7.2705 31.6519 7.28408 31.6023 7.31048C31.5527 7.33689 31.5107 7.37525 31.4805 7.42196C31.4237 7.53316 31.3995 7.60464 31.4237 7.66819L31.7235 9.76511C31.7389 9.86722 31.7872 9.96183 31.8612 10.0352ZM36.5685 7.6523C36.5407 7.55525 36.4908 7.46563 36.4227 7.39018C36.3854 7.346 36.3382 7.31085 36.2848 7.28743C36.2314 7.26401 36.1732 7.25297 36.1148 7.25515H34.624C34.5685 7.2536 34.5136 7.26681 34.4651 7.29338C34.4166 7.31995 34.3763 7.35889 34.3486 7.40607C34.2947 7.47654 34.2713 7.56505 34.2838 7.6523L34.5835 9.74922C34.6023 9.85025 34.6501 9.94393 34.7213 10.0193C34.7609 10.0628 34.8096 10.0973 34.8642 10.1206C34.9187 10.1439 34.9777 10.1554 35.0372 10.1543H36.528C36.5834 10.155 36.638 10.1415 36.6863 10.115C36.7347 10.0885 36.7751 10.05 36.8035 10.0034C36.8317 9.96786 36.8513 9.92658 36.8612 9.8826C36.871 9.83862 36.8706 9.79305 36.8602 9.74922L36.5685 7.6523ZM30.5568 10.8295L30.411 9.79688H23.2246C23.1117 9.80298 23.0026 9.83864 22.9086 9.90014C22.8489 9.93204 22.797 9.97626 22.7564 10.0297C22.7159 10.0832 22.6876 10.1447 22.6737 10.2099L22.0741 12.1797C22.0502 12.229 22.042 12.2842 22.0506 12.3381C22.0594 12.3919 22.0845 12.442 22.1227 12.4816C22.191 12.5445 22.2802 12.5812 22.3739 12.5848H31.1078L28.9608 19.6223H20.2511C20.1388 19.6248 20.0295 19.6578 19.9352 19.7175C19.8206 19.7889 19.7369 19.8992 19.7002 20.0273L19.0926 21.9972C19.0728 22.0477 19.0675 22.1026 19.0775 22.1559C19.0876 22.2092 19.1124 22.2587 19.1493 22.299C19.2155 22.3662 19.3053 22.406 19.4004 22.4102H30.8404C30.9587 22.4002 31.0728 22.362 31.1726 22.299C31.2922 22.2331 31.382 22.1253 31.4237 21.9972L34.7131 11.2266H31.0106C30.9518 11.2277 30.8935 11.217 30.8391 11.1952C30.7848 11.1733 30.7356 11.1408 30.6946 11.0995C30.6276 11.0275 30.5802 10.9401 30.5568 10.8453V10.8295Z" fill="white"/>
</g>
</g>
<defs>
<filter id="filter0_d_211_2052" x="0.299316" y="0.365723" width="46.2839" height="41.4111" filterUnits="userSpaceOnUse" color-interpolation-filters="sRGB">
<feFlood flood-opacity="0" result="BackgroundImageFix"/>
<feColorMatrix in="SourceAlpha" type="matrix" values="0 0 0 0 0 0 0 0 0 0 0 0 0 0 0 0 0 0 127 0" result="hardAlpha"/>
<feOffset dy="4"/>
<feGaussianBlur stdDeviation="2"/>
<feComposite in2="hardAlpha" operator="out"/>
<feColorMatrix type="matrix" values="0 0 0 0 0 0 0 0 0 0 0 0 0 0 0 0 0 0 0.25 0"/>
<feBlend mode="normal" in2="BackgroundImageFix" result="effect1_dropShadow_211_2052"/>
<feBlend mode="normal" in="SourceGraphic" in2="effect1_dropShadow_211_2052" result="shape"/>
</filter>
<clipPath id="clip0_211_2052">
<rect width="38.2838" height="20.8821" fill="white" transform="translate(4.29932 6.52393)"/>
</clipPath>
</defs>
</svg>
