<svg width="134" height="22" viewBox="0 0 134 22" fill="none" xmlns="http://www.w3.org/2000/svg">
<path d="M17.0185 12.0323L12.3793 19.9778L7.74004 12.0323H17.0185ZM18.2614 11.3221H6.49219L12.3793 21.3832L18.2614 11.3221Z" fill="white"/>
<path d="M25.0841 2.14988L29.7234 10.0954H20.4449L25.0841 2.14988ZM25.0841 0.729614L19.197 10.7906H30.9712L25.0841 0.729614Z" fill="white"/>
<path d="M0.851562 0.729614L5.78769 9.62861L11.1817 0.95307L0.851562 0.729614Z" fill="#4CAF4F"/>
<path d="M12.3793 1.50916L17.557 10.3585H7.19165L12.3793 1.50916Z" fill="#4CAF4F"/>
<path d="M18.8902 12.2905L24.0728 21.3832H13.4609L18.7291 12.2905H18.8902Z" fill="#4CAF4F"/>
<path d="M20.0122 11.7393L25.0842 20.6929L30.2266 11.7393H20.0122Z" fill="#4CAF4F"/>
<path d="M52.5135 2.16589V19.6902H49.3132L41.6891 8.66048H41.5608V19.6902H37.8557V2.16589H41.1073L48.6715 13.187H48.8255V2.16589H52.5135Z" fill="white"/>
<path d="M61.4959 19.9469C60.144 19.9469 58.9802 19.673 58.0048 19.1254C57.035 18.5721 56.2877 17.7906 55.7629 16.7809C55.2381 15.7655 54.9757 14.5647 54.9757 13.1785C54.9757 11.8265 55.2381 10.6399 55.7629 9.61884C56.2877 8.59773 57.0264 7.80195 57.9791 7.2315C58.9375 6.66105 60.0612 6.37582 61.3505 6.37582C62.2175 6.37582 63.0247 6.51559 63.772 6.79511C64.525 7.06892 65.181 7.4825 65.7401 8.03584C66.3048 8.58918 66.7441 9.28513 67.0578 10.1237C67.3716 10.9565 67.5284 11.932 67.5284 13.0501V14.0512H56.4303V11.7923H64.0972C64.0972 11.2674 63.9831 10.8025 63.7549 10.3975C63.5267 9.99248 63.2101 9.67588 62.8051 9.4477C62.4058 9.21382 61.9409 9.09688 61.4104 9.09688C60.857 9.09688 60.3664 9.22523 59.9386 9.48193C59.5165 9.73293 59.1856 10.0723 58.946 10.5002C58.7064 10.9223 58.5838 11.3929 58.5781 11.9121V14.0598C58.5781 14.7101 58.6979 15.272 58.9375 15.7455C59.1827 16.219 59.5279 16.5841 59.9728 16.8408C60.4178 17.0975 60.9454 17.2258 61.5558 17.2258C61.9608 17.2258 62.3316 17.1688 62.6682 17.0547C63.0048 16.9406 63.2928 16.7694 63.5324 16.5413C63.772 16.3131 63.9546 16.0336 64.0801 15.7027L67.4514 15.9252C67.2803 16.7352 66.9295 17.4426 66.399 18.0473C65.8741 18.6462 65.1953 19.114 64.3624 19.4506C63.5353 19.7814 62.5798 19.9469 61.4959 19.9469Z" fill="white"/>
<path d="M72.7181 6.54696L75.1311 11.1419L77.604 6.54696H81.3434L77.5356 13.1186L81.446 19.6902H77.7238L75.1311 15.1465L72.5812 19.6902H68.8162L72.7181 13.1186L68.9532 6.54696H72.7181Z" fill="white"/>
<path d="M88.976 19.9469C87.6297 19.9469 86.4717 19.6616 85.5019 19.0912C84.5379 18.515 83.7963 17.7164 83.2772 16.6953C82.7638 15.6742 82.5071 14.4991 82.5071 13.1699C82.5071 11.8236 82.7666 10.6428 83.2857 9.6274C83.8106 8.60629 84.555 7.81051 85.5191 7.24006C86.4831 6.6639 87.6297 6.37582 88.9589 6.37582C90.1055 6.37582 91.1095 6.58404 91.9709 7.00047C92.8322 7.4169 93.5139 8.00161 94.0159 8.75461C94.5179 9.5076 94.7946 10.3918 94.8459 11.4072H91.4061C91.3091 10.7512 91.0524 10.2235 90.636 9.8242C90.2253 9.41918 89.6862 9.21667 89.0188 9.21667C88.454 9.21667 87.9606 9.37069 87.5385 9.67874C87.122 9.98108 86.7969 10.4232 86.563 11.005C86.3291 11.5869 86.2122 12.2914 86.2122 13.1186C86.2122 13.9571 86.3262 14.6702 86.5544 15.2578C86.7883 15.8453 87.1163 16.2931 87.5385 16.6012C87.9606 16.9092 88.454 17.0632 89.0188 17.0632C89.4352 17.0632 89.8089 16.9777 90.1397 16.8065C90.4763 16.6354 90.7529 16.3872 90.9697 16.0621C91.1922 15.7312 91.3377 15.3348 91.4061 14.8727H94.8459C94.7889 15.8767 94.5151 16.7609 94.0245 17.5253C93.5396 18.284 92.8693 18.8773 92.0136 19.3051C91.158 19.7329 90.1454 19.9469 88.976 19.9469Z" fill="white"/>
<path d="M103.17 19.9469C101.818 19.9469 100.654 19.673 99.6784 19.1254C98.7086 18.5721 97.9613 17.7906 97.4365 16.7809C96.9117 15.7655 96.6493 14.5647 96.6493 13.1785C96.6493 11.8265 96.9117 10.6399 97.4365 9.61884C97.9613 8.59773 98.7 7.80195 99.6527 7.2315C100.611 6.66105 101.735 6.37582 103.024 6.37582C103.891 6.37582 104.698 6.51559 105.446 6.79511C106.199 7.06892 106.855 7.4825 107.414 8.03584C107.978 8.58918 108.418 9.28513 108.731 10.1237C109.045 10.9565 109.202 11.932 109.202 13.0501V14.0512H98.1039V11.7923H105.771C105.771 11.2674 105.657 10.8025 105.429 10.3975C105.2 9.99248 104.884 9.67588 104.479 9.4477C104.079 9.21382 103.614 9.09688 103.084 9.09688C102.531 9.09688 102.04 9.22523 101.612 9.48193C101.19 9.73293 100.859 10.0723 100.62 10.5002C100.38 10.9223 100.257 11.3929 100.252 11.9121V14.0598C100.252 14.7101 100.371 15.272 100.611 15.7455C100.856 16.219 101.201 16.5841 101.646 16.8408C102.091 17.0975 102.619 17.2258 103.229 17.2258C103.634 17.2258 104.005 17.1688 104.342 17.0547C104.678 16.9406 104.966 16.7694 105.206 16.5413C105.446 16.3131 105.628 16.0336 105.754 15.7027L109.125 15.9252C108.954 16.7352 108.603 17.4426 108.073 18.0473C107.548 18.6462 106.869 19.114 106.036 19.4506C105.209 19.7814 104.253 19.9469 103.17 19.9469Z" fill="white"/>
<path d="M115.226 12.0917V19.6902H111.581V6.54696H115.055V8.86584H115.209C115.5 8.10144 115.988 7.49676 116.672 7.05181C117.357 6.60115 118.187 6.37582 119.162 6.37582C120.075 6.37582 120.871 6.57548 121.549 6.9748C122.228 7.37411 122.756 7.94457 123.132 8.68615C123.509 9.42203 123.697 10.3005 123.697 11.3216V19.6902H120.052V11.972C120.058 11.1676 119.852 10.5401 119.436 10.0895C119.02 9.6331 118.446 9.40492 117.716 9.40492C117.225 9.40492 116.792 9.51045 116.415 9.72152C116.045 9.93259 115.754 10.2406 115.543 10.6457C115.337 11.045 115.232 11.527 115.226 12.0917Z" fill="white"/>
<path d="M133.561 6.54696V9.28513H125.646V6.54696H133.561ZM127.443 3.39807H131.088V15.6514C131.088 15.9879 131.139 16.2503 131.242 16.4386C131.345 16.6211 131.487 16.7495 131.67 16.8236C131.858 16.8978 132.075 16.9349 132.32 16.9349C132.491 16.9349 132.663 16.9206 132.834 16.8921C133.005 16.8579 133.136 16.8322 133.227 16.8151L133.801 19.5276C133.618 19.5846 133.361 19.6502 133.031 19.7244C132.7 19.8042 132.297 19.8527 131.824 19.8699C130.946 19.9041 130.175 19.7871 129.514 19.519C128.858 19.2509 128.347 18.8345 127.982 18.2697C127.617 17.705 127.437 16.9919 127.443 16.1305V3.39807Z" fill="white"/>
</svg>
